<?xml version="1.0" encoding="iso-8859-1"?>
<!-- Generator: Adobe Illustrator 18.1.1, SVG Export Plug-In . SVG Version: 6.00 Build 0)  -->
<svg version="1.1" id="Capa_1" xmlns="http://www.w3.org/2000/svg" xmlns:xlink="http://www.w3.org/1999/xlink" x="0px" y="0px"
	 viewBox="0 0 83.944 83.944" style="enable-background:new 0 0 83.944 83.944;" xml:space="preserve">
<g id="_x37_7_Essential_Icons_53_">
	<path id="Reply" d="M5.572,31.415l28,28c1.3,1.3,3.4,0.4,3.4-1.4v-14.2c0.6,0,1.2-0.1,1.7-0.1c12.8,0,23.2,10.3,23.2,22.9
		c0,5.2-1.8,9.7-5.4,14c-1.4,1.6,0.5,4.1,2.4,3.1c12.6-6.4,20.1-18.3,20.1-31.8c0-20.2-16.7-36.5-37.3-36.5c-1.6,0-3.3,0.1-4.7,0.3
		v-13.7c0-1.8-2.1-2.7-3.4-1.4l-28,28C4.772,29.415,4.772,30.615,5.572,31.415z M9.772,30.015l23.2-23.2v11.2c0,1.2,1.1,2.2,2.4,2
		c1.6-0.3,4-0.7,6.4-0.7c18.3,0,33.2,14.6,33.2,32.6c0,9.1-3.9,17.5-10.7,23.4c1-2.7,1.6-5.6,1.6-8.6c0-14.9-12.2-26.9-27.2-26.9
		c-3.1,0-5.7,0-5.7,2.2v11.2L9.772,30.015z"/>
</g>
<g>
</g>
<g>
</g>
<g>
</g>
<g>
</g>
<g>
</g>
<g>
</g>
<g>
</g>
<g>
</g>
<g>
</g>
<g>
</g>
<g>
</g>
<g>
</g>
<g>
</g>
<g>
</g>
<g>
</g>
</svg>
