<?xml version="1.0" encoding="utf-8"?>
<!-- Svg Vector Icons : http://www.onlinewebfonts.com/icon -->
<!DOCTYPE svg PUBLIC "-//W3C//DTD SVG 1.1//EN" "http://www.w3.org/Graphics/SVG/1.1/DTD/svg11.dtd">
<svg version="1.1" xmlns="http://www.w3.org/2000/svg" xmlns:xlink="http://www.w3.org/1999/xlink" x="0px" y="0px" viewBox="0 0 1000 1000" enable-background="new 0 0 1000 1000" xml:space="preserve">
<metadata> Svg Vector Icons : http://www.onlinewebfonts.com/icon </metadata>
<g><path d="M312.9,500c-54.9,1.9-100,25-135.4,69h-68.6c-27.4,0-50.9-7.1-70.5-21.4C18.9,533.4,9.4,512,10,483.5C10,355.8,31.1,292,73.2,292c2.4,0,10.1,3.6,22.9,10.7s29.3,14.9,49.4,23.3c20.1,8.4,40.3,12.3,60.4,11.7c23.2,0,46.1-4.2,68.6-12.6c-1.8,13.6-2.7,25.6-2.7,36C271.7,411.5,285.4,457.9,312.9,500L312.9,500z M860.1,846.1c0,42.8-12.5,76.8-37.5,102.1c-25,25.3-57.9,37.9-98.8,37.9H277.2c-41.5,0-74.4-12.6-98.8-37.9c-24.4-25.3-36.9-59.3-37.5-102.1c0-19.4,0.6-38.2,1.8-56.4c1.2-18.1,3.7-37.9,7.3-59.3c3.7-21.4,7.9-41.2,12.8-59.3c4.9-18.1,12.2-35.6,22-52.5s20.4-31.4,32-43.8c11.6-12.3,26.2-22,43.9-29.2c17.7-7.1,36.6-10.7,56.7-10.7c3.7,0,11,3.9,22,11.7c11,7.8,23.5,16.2,37.5,25.3c14,9.1,32,17.8,54,26.3c22,8.4,45.1,12.3,69.5,11.7c24.4-0.6,47.3-4.5,68.6-11.7c21.3-7.1,39.6-15.9,54.9-26.3c15.3-10.4,27.8-18.8,37.5-25.3c9.8-6.5,16.8-10.4,21-11.7c21.4,0,40.6,3.6,57.6,10.7s31.4,16.8,43,29.2c11.6,12.3,22.3,26.9,32,43.8c9.8,16.9,17.1,34.4,22,52.5c4.9,18.1,9.5,37.9,13.7,59.3c4.3,21.4,6.7,41.2,7.3,59.3C858.8,807.9,859.5,826.7,860.1,846.1L860.1,846.1z M336.7,152.9c0,38.2-12.8,71-38.4,98.2S241.8,292,205.8,292c-36,0-66.8-13.6-92.4-40.8S75,191.2,75,152.9s12.8-71,38.4-98.2c25.6-27.2,56.4-40.8,92.4-40.8c36,0,66.8,13.6,92.4,40.8C323.9,82,336.7,114.7,336.7,152.9z M696.3,361c0,57.7-19.2,106.9-57.6,147.8c-38.4,40.8-84.5,60.9-138.2,60.3s-100-20.7-139.1-60.3c-39-39.5-58.3-88.8-57.6-147.8c0.6-59,19.8-107.9,57.6-146.8c37.8-38.9,84.2-59.3,139.1-61.2c54.9-1.9,101,18.5,138.2,61.2C675.8,257,695.1,305.9,696.3,361L696.3,361z M990,483.5c0,27.9-9.5,49.3-28.4,64.2s-42.4,22-70.5,21.4h-68.6c-34.8-44.1-79.6-67.1-134.5-69c27.5-42.1,41.2-88.5,41.2-139c0-10.4-0.9-22.4-2.7-36c22.6,8.4,45.1,12.6,67.7,12.6c20.1,0,40.6-3.9,61.3-11.7c20.7-7.8,37.2-15.6,49.4-23.3c12.2-7.8,19.5-11.3,22-10.7C969,292,990,355.8,990,483.5L990,483.5z M925,152.9c0,38.2-12.8,71-38.4,98.2C861,278.3,830.2,292,794.2,292s-66.8-13.6-92.4-40.8s-38.4-60-38.4-98.2s12.8-71,38.4-98.2c25.6-27.2,56.4-40.8,92.4-40.8s66.8,13.6,92.4,40.8C912.2,82,925,114.7,925,152.9L925,152.9z"/></g>
</svg>